<svg xmlns="http://www.w3.org/2000/svg" xmlns:xlink="http://www.w3.org/1999/xlink" viewBox="0 0 817 523" width="30" height="30" preserveAspectRatio="xMidYMid meet">
  <defs>
    <clipPath id="__lottie_element_14"><rect width="817" height="523" x="0" y="0"/></clipPath>
    <clipPath id="__lottie_element_16"><path d="M0,0 L817,0 L817,523 L0,523z"/></clipPath>
  </defs>
  <g clip-path="url(#__lottie_element_14)">
    <g clip-path="url(#__lottie_element_16)" transform="matrix(1,0,0,1,0,0)" opacity="1">
      <g transform="matrix(1,0,0,1,0,0)" opacity="1">
        <path stroke="white" stroke-width="4" fill="rgb(0,0,0)" fill-opacity="1" d="M177.984,110.133C139.866,114.038 85.541,150.47 64.259,181.235C36.457,221.424 69.287,247.714 110.625,244.683C124.986,243.63 139.715,238.941 153.66,235.496C112.247,302.917 65.523,364.62 34.192,437.573C25.968,456.722 0.248,493.764 18.951,513.16C27.254,521.771 59.819,516.159 71.332,516.159C66.916,504.226 57.785,497.969 47.008,491.835C47.008,491.835 47.008,489.964 47.008,489.964C47.008,489.964 77.338,444.141 77.338,444.141C77.338,444.141 136.82,426.998 136.82,426.998C136.82,426.998 181.726,390.456 181.726,390.456C181.726,390.456 230.375,377.699 230.375,377.699C233.707,391.695 229.147,407.137 233.207,420.734C240.733,445.936 272.545,471.266 288.593,491.835C294.659,499.61 301.167,511.422 310.839,515.031C327.134,521.111 353.348,516.159 370.706,516.159C358.939,496.421 344.095,496.338 328.186,483.043C316.02,472.876 301.246,436.21 297.769,420.734C296.113,413.362 300.202,406.553 303.353,400.152C306.663,393.429 309.876,383.33 316.688,379.362C328.99,372.196 372.735,381.527 383.209,390.458C389.847,396.118 390.17,412.488 391.558,420.734C395.336,443.185 399.372,465.691 403.671,488.093C405.028,495.164 407.098,509.647 413.186,514.236C423.458,521.978 455.281,516.159 468.003,516.159C468.003,516.159 442.365,477.4 442.365,477.4C442.365,477.4 445.767,443.187 445.767,443.187C445.767,443.187 453.367,406.164 453.367,406.164C453.367,406.164 473.616,392.407 473.616,392.407C473.616,392.407 526.007,364.601 526.007,364.601C524.925,339.411 513.929,308.073 535.362,287.886C532.703,302.204 530.77,323.785 540.42,336.136C555.108,354.935 587.112,357.851 603.809,374.947C616.805,388.254 605.539,406.754 616.023,420.56C628.358,436.804 677.389,442.775 693.769,428.867C702.065,421.823 703.192,410.03 705.631,400.152C705.631,400.152 707.502,400.152 707.502,400.152C707.502,400.152 710.823,422.605 710.823,422.605C710.823,422.605 707.91,448.48 707.91,448.48C707.91,448.48 747.069,484.519 747.069,484.519C747.069,484.519 758.826,515.031 758.826,515.031C758.826,515.031 812.283,516.159 812.283,516.159C792.006,472.782 761.02,430.969 734.927,390.797C724.362,374.531 707.635,354.909 701.549,336.535C697.81,325.246 712.049,317.982 715.47,308.467C719.609,296.954 715.082,274.901 711.244,263.562C737.125,254.059 765.406,253.037 784.182,229.81C816.23,190.165 769.857,130.939 728.084,121.359C737.793,143.178 784.236,200.796 728.084,203.613C721.408,203.948 714.158,204.235 707.51,203.483C693.178,201.861 684.765,182.677 677.565,171.878C655.95,139.46 635.099,106.402 612.599,74.583C590.544,43.392 530.503,32.897 496.069,18.709C482.063,12.938 464.469,2.301 449.292,0.996C440.618,0.25 431.646,7.893 424.968,12.579C409.634,23.339 393.872,33.463 378.191,43.7C315.67,84.516 251.27,123.729 191.082,167.846C169.361,183.767 144.777,199.713 118.11,205.53C107.837,207.771 95.839,210.572 86.512,203.981C71.484,193.362 91.186,172.756 99.743,164.396C115.314,149.184 121.401,156.996 138.692,151.439C155.327,146.093 172.622,126.301 177.984,110.133zM522.265,117.617C511.106,141.114 482.676,164.186 504.279,191.845C526.658,220.497 567.739,189.317 577.857,235.495C578.944,240.457 580.751,247.027 579.383,252.058C577.471,259.086 569.141,257.937 563.429,257.949C547.921,257.984 533.776,256.251 518.523,253.673C495.059,249.706 468.577,235.037 460.938,211.171C449.881,176.633 487.182,122.283 522.265,117.617zM786.088,192.46C793.868,220.824 761.153,236.249 739.311,242.422C726.988,245.904 711.656,250.892 707.502,235.495C742.853,225.023 764.922,227.42 786.088,192.46zM499.812,205.558C514.576,225.558 540.394,228.011 563.429,228.011C560.229,207.343 539.198,214.841 524.136,212.65C515.639,211.414 508.389,206.628 499.812,205.558z"/>
      </g>
      <g transform="matrix(1,0,0,1,-2.5,1.5)" opacity="1">
        <path stroke="white" stroke-width="4" fill="rgb(255,107,107)" fill-opacity="1" d="M585.882,287.886C595.353,300.16 604.121,313.425 606.464,329.05C586.432,327.04 567.994,305.203 585.882,287.886z"/>
      </g>
    </g>
  </g>
</svg>
