<svg xmlns="http://www.w3.org/2000/svg" xmlns:xlink="http://www.w3.org/1999/xlink" version="1.1" x="50%" y="50%" viewBox="0 0 960 700" enable-background="new 0 0 960 560" xml:space="preserve"><path d="M672.984,206.881c0.002-0.017-0.003-0.033-0.002-0.05c0.003-0.073,0.005-0.147-0.008-0.22l-18.426-103.646  c-0.008-0.047-0.032-0.087-0.047-0.131c-0.015-0.045-0.026-0.09-0.047-0.132c-0.036-0.074-0.084-0.138-0.137-0.2  c-0.024-0.029-0.042-0.061-0.07-0.087c-0.086-0.082-0.185-0.15-0.295-0.197c-0.009-0.004-0.02-0.003-0.029-0.007  c-0.093-0.036-0.191-0.063-0.294-0.07c-0.013-0.001-0.025-0.066-0.038-0.066c-0.01,0-0.018-0.075-0.028-0.075  c-0.004,0-0.008,0-0.011,0c-0.028,0-0.052,0.084-0.079,0.087c-0.096,0.008-0.188,0.06-0.273,0.093  c-0.027,0.011-0.051,0.04-0.077,0.053c-0.087,0.043-0.165,0.105-0.235,0.171c-0.022,0.02-0.042,0.043-0.062,0.065  c-0.058,0.065-0.104,0.14-0.143,0.22c-0.018,0.035-0.039,0.068-0.052,0.106c-0.005,0.015-0.016,0.027-0.021,0.042l-28.082,88.58  l-73.285,22.202l-47.936-11.033l-22.76-14.936c-0.334-0.219-0.765-0.219-1.098,0l-22.761,14.936l-47.934,11.033l-73.285-22.202  l-28.082-88.58c-0.005-0.014-0.015-0.025-0.02-0.039c-0.016-0.045-0.041-0.082-0.064-0.123c-0.035-0.066-0.072-0.128-0.121-0.184  c-0.033-0.038-0.069-0.069-0.107-0.102c-0.052-0.044-0.106-0.082-0.167-0.115c-0.047-0.026-0.092-0.048-0.143-0.066  c-0.071-0.025-0.144-0.038-0.22-0.047c-0.035-0.004-0.065-0.021-0.101-0.021c-0.012,0-0.021,0.006-0.033,0.007  c-0.015,0-0.029-0.006-0.044-0.005c-0.238,0.016-0.453,0.117-0.617,0.272c-0.043,0.04-0.073,0.088-0.108,0.135  c-0.034,0.046-0.069,0.089-0.095,0.141c-0.026,0.052-0.042,0.107-0.059,0.164c-0.012,0.038-0.033,0.071-0.04,0.111l-18.426,103.646  c-0.014,0.076-0.012,0.152-0.008,0.227c0.001,0.014-0.003,0.028-0.002,0.042c0.011,0.118,0.048,0.229,0.099,0.335  c0.006,0.012,0.005,0.026,0.011,0.038c0.013,0.026,0.034,0.044,0.049,0.068c0.025,0.039,0.05,0.076,0.08,0.111  c0.033,0.039,0.069,0.072,0.107,0.104c0.019,0.017,0.034,0.038,0.055,0.054l64.216,47.352l-63.32,30.495  c-0.018,0.009-0.031,0.022-0.048,0.032c-0.025,0.014-0.046,0.03-0.07,0.046c-0.079,0.053-0.149,0.115-0.209,0.188  c-0.015,0.018-0.033,0.034-0.047,0.053c-0.065,0.091-0.114,0.191-0.146,0.299c-0.008,0.026-0.01,0.052-0.015,0.078  c-0.01,0.048-0.025,0.095-0.028,0.145c-0.003,0.05,0.006,0.099,0.011,0.148c0.002,0.017-0.005,0.033-0.003,0.05  c0.001,0.009,0.007,0.015,0.008,0.024c0.019,0.116,0.058,0.225,0.115,0.327c0.013,0.022,0.028,0.041,0.042,0.062  c0.052,0.079,0.115,0.148,0.189,0.21c0.02,0.016,0.037,0.034,0.057,0.049c0.014,0.01,0.024,0.023,0.039,0.033l44.142,28.288  c0,0,0.001,0.001,0.001,0.001c0,0,0.002,0.001,0.002,0.001l0.008,0.005c0.052,0.033,0.109,0.052,0.165,0.075  c0.032,0.013,0.062,0.034,0.095,0.043c0.01,0.003,0.02,0.002,0.03,0.004c0.082,0.021,0.166,0.036,0.249,0.036l0.001,0c0,0,0,0,0,0  c0.003,0,0.006-0.001,0.008-0.001c0.083-0.001,0.166-0.012,0.246-0.033c0.004-0.001,0.008,0,0.012-0.002l49.041-13.501  l49.644,92.342l-9.708,7.622c-0.161,0.126-0.279,0.299-0.339,0.495l-8.999,29.598c-0.005,0.015-0.003,0.03-0.007,0.045  c-0.008,0.031-0.01,0.062-0.015,0.093c-0.014,0.088-0.016,0.174-0.007,0.261c0.003,0.032,0.005,0.062,0.012,0.094  c0.023,0.112,0.06,0.222,0.12,0.32c0.003,0.005,0.008,0.008,0.011,0.013c0.046,0.073,0.1,0.142,0.166,0.202l27.104,24.828  c0.01,0.009,0.024,0.013,0.035,0.022c0.028,0.024,0.054,0.048,0.084,0.069c0.004,0.003,0.006,0.007,0.01,0.009  c0.018,0.012,0.039,0.016,0.058,0.027c0.04,0.022,0.077,0.047,0.12,0.064c0.003,0.001,0.005,0.003,0.008,0.004  c0.001,0,0.002,0.001,0.002,0.001c0.015,0.006,0.03,0.006,0.045,0.011c0.032,0.011,0.064,0.017,0.097,0.024  c0.057,0.013,0.181,0.022,0.239,0.025c0.015,0.001,0.112,0.006,0.112,0.006v-0.136V458h78.135c0.025,0,0.047,0.125,0.071,0.123  c0.037-0.002,0.073,0.071,0.11,0.065c0.04-0.007,0.074,0.007,0.112-0.005c0.037-0.011,0.072-0.004,0.107-0.02  c0.008-0.004,0.017,0.004,0.025,0c0.009-0.004,0.018-0.001,0.027-0.005c0.065-0.033,0.122-0.077,0.178-0.123  c0.014-0.011,0.032-0.015,0.045-0.027l27.104-24.828c0.064-0.059,0.117-0.127,0.163-0.198c0.004-0.007,0.011-0.011,0.015-0.018  c0.06-0.098,0.096-0.206,0.119-0.318c0.007-0.033,0.009-0.064,0.013-0.097c0.01-0.087,0.007-0.174-0.007-0.261  c-0.005-0.03-0.006-0.059-0.014-0.089c-0.004-0.015-0.003-0.031-0.007-0.047l-8.998-29.598c-0.06-0.196-0.179-0.369-0.34-0.495  l-9.708-7.622l49.643-92.342l49.041,13.501c0.004,0.001,0.008,0.001,0.012,0.002c0.08,0.021,0.162,0.033,0.245,0.033  c0.003,0,0.005,0.001,0.008,0.001l0,0c0,0,0,0,0.001,0c0.083,0,0.167-0.015,0.249-0.036c0.01-0.003,0.02-0.001,0.03-0.004  c0.033-0.01,0.063-0.03,0.095-0.043c0.056-0.023,0.113-0.277,0.164-0.31l0.008-0.24c0.001,0,0.002,0,0.002,0  c0.001,0,0.001,0.234,0.002,0.234l44.143-28.17c0.026-0.016,0.045,0.019,0.068,0.001c0.027-0.021,0.051-0.012,0.076-0.035  c0.062-0.059,0.115-0.11,0.159-0.182c0.012-0.019,0.026-0.027,0.037-0.046c0.051-0.096,0.084-0.195,0.102-0.303  c0.001-0.009,0.007-0.014,0.008-0.023c0.002-0.017-0.004-0.031-0.003-0.048c0.004-0.05,0.014-0.098,0.011-0.149  c-0.003-0.051-0.018-0.098-0.029-0.147c-0.005-0.025-0.007-0.05-0.015-0.075c-0.032-0.109-0.081-0.21-0.147-0.302  c-0.014-0.019-0.03-0.033-0.045-0.051c-0.06-0.072-0.13-0.135-0.21-0.188c-0.024-0.016-0.045-0.032-0.071-0.046  c-0.017-0.009-0.031-0.023-0.048-0.032l-63.32-30.495l64.217-47.352c0.022-0.016,0.037-0.039,0.057-0.056  c0.036-0.031,0.07-0.063,0.102-0.1c0.031-0.036,0.057-0.074,0.082-0.113c0.015-0.023,0.035-0.042,0.048-0.067  c0.007-0.012,0.005-0.026,0.011-0.038C672.936,207.11,672.973,206.999,672.984,206.881z M593.287,263.577l-19.519-23.459  l80.848-41.392l15.5,8.199L593.287,263.577z M627.393,313.259l-4.808-7.315c-0.033-0.049-0.079-0.087-0.119-0.129  c-0.02-0.021-0.029-0.049-0.052-0.069l-31.51-28.037l0.784-1.458l76.749,10.706L627.393,313.259z M531.7,383.609l23.616-69.439  l21.198-29.179l12.039-7.135L531.7,383.609z M371.446,277.856l12.039,7.135l21.198,29.179l23.616,69.438L371.446,277.856z   M332.608,313.259l-41.045-26.303l76.749-10.706l0.784,1.459l-31.51,28.037c-0.022,0.019-0.031,0.046-0.05,0.067  c-0.041,0.043-0.088,0.081-0.121,0.132L332.608,313.259z M289.885,206.925l15.499-8.199l80.848,41.392l-19.519,23.459  L289.885,206.925z M406.988,215.174l-19.445,23.369l-79.09-40.492l26.165-4.802L406.988,215.174z M456.604,204.659l21.061,35.355  l-65.526-25.121L456.604,204.659z M503.396,204.66l44.465,10.234l-65.526,25.121L503.396,204.66z M625.382,193.249l26.165,4.802  l-79.09,40.492l-19.444-23.369L625.382,193.249z M653.611,196.397l-26.991-4.954l26.015-82.059L653.611,196.397z M514.675,320.984  l11.908-17.386l26.585,10.682l-25.996,76.436L514.675,320.984z M408,217.419v40.884l-38.247,15.477l-1.592-8.563L408,217.419z   M447.296,321.327l20.501-14.997l-31.985,79.077L447.296,321.327z M446.625,319.341l-12.008-17.532  c-0.013-0.019-0.027-0.038-0.042-0.056l-24.968-31.71l0.094-9.12l58.642,42.531L446.625,319.341z M407.706,260.468l-0.096,9.331  l-23.425,13.282l-13.076-7.749L407.706,260.468z M408.349,271.678l22.476,28.545l-44.277-16.183L408.349,271.678z M430.998,302.415  l-25.066,10.071l-19.023-26.186L430.998,302.415z M433.418,303.598l11.908,17.386l-12.497,69.732l-25.996-76.436L433.418,303.598z   M470.715,304H479v82.99l-44.289,6.25L470.715,304z M481,304h8.285l36.004,89.239L481,386.99V304z M550.393,270.042l-24.968,31.711  c-0.014,0.018-0.028,0.037-0.041,0.057l-12.008,17.531l-21.719-15.888l58.642-42.531L550.393,270.042z M512.704,321.327  l11.483,64.081l-31.984-79.078L512.704,321.327z M554.068,312.486l-25.065-10.071l44.088-16.114L554.068,312.486z M529.175,300.223  l22.476-28.544l21.801,12.361L529.175,300.223z M575.816,283.08l-23.426-13.282l-0.096-9.331l36.598,14.863L575.816,283.08z   M552,258.303v-40.884l39.909,47.798l-1.732,8.563L552,258.303z M550,216.108v42.357l-59.453,43.221l-9.639-59.063L550,216.108z   M488.784,302H480h-8.784L480,247.784L488.784,302z M469.453,301.687L410,258.466v-42.358l69.092,26.515L469.453,301.687z   M306.39,196.397l0.977-87.014l26.015,82.061L306.39,196.397z M304.383,196.993l-15.03,7.951l15.947-89.701L304.383,196.993z   M370.07,279.519l6.699,12.461l-34.082,11.903L370.07,279.519z M480,388.865l45.082,6.692L500.681,429H459.32l-24.402-33.443  L480,388.865z M441.338,454.72l-9.35-43.367l25.469,18.69L441.338,454.72z M459.353,431h41.294l14.7,22.404l-20.101-14.369  c-0.171-0.123-0.376-0.035-0.586-0.035h-29.32c-0.21,0-0.415-0.139-0.585-0.016l-20.101,14.521L459.353,431z M502.544,430.043  l25.468-18.689l-9.35,43.366L502.544,430.043z M454.174,425.153l-22.621-16.6l2.134-11.393L454.174,425.153z M439.227,454.415  l-24.138-22.111l14.866-20.889L439.227,454.415z M465.664,441h28.673l21.706,15h-72.086L465.664,441z M530.045,411.415  l14.867,20.889l-24.138,22.111L530.045,411.415z M505.826,425.153l20.486-27.993l2.133,11.394L505.826,425.153z M589.93,279.519  l27.381,24.364l-34.08-11.903L589.93,279.519z M655.617,196.993L654.7,115.24l15.947,89.704L655.617,196.993z M480,189.683  l21.561,14.149L480,240.027l-21.562-36.195L480,189.683z M365.971,265.515l1.71,8.804l-72.738,10.147l58.512-28.18L365.971,265.515z   M335.193,312.966l3.707-5.642l38.827-13.56l3.508,6.526L335.193,312.966z M423.625,403.438l8.032-6.306l-2.145,11.455  l-13.01,18.281L423.625,403.438z M543.499,426.871l-13.012-18.283l-2.145-11.456l8.033,6.306L543.499,426.871z M582.272,293.764  l38.827,13.56l3.707,5.641l-46.043-12.676L582.272,293.764z M665.058,284.465l-72.739-10.147l1.709-8.803l12.518-9.23  L665.058,284.465z"/></svg>